<svg xmlns="http://www.w3.org/2000/svg" width="400" height="520" viewBox="0 0 400 520" fill="none">
  <defs>
    <linearGradient id="bg" x1="0" y1="0" x2="0.85" y2="1">
      <stop offset="0%" stop-color="#b91c1c"/>
      <stop offset="100%" stop-color="#7f1d1d"/>
    </linearGradient>
    <radialGradient id="glow" cx="0.75" cy="0.2" r="0.55">
      <stop offset="0%" stop-color="#ffffff" stop-opacity="0.12"/>
      <stop offset="100%" stop-color="#ffffff" stop-opacity="0"/>
    </radialGradient>
  </defs>
  <rect width="400" height="520" rx="48" fill="url(#bg)"/>
  <rect x="8" y="8" width="384" height="504" rx="40" stroke="#ffcb08" stroke-opacity="0.35" stroke-width="3"/>
  <rect width="400" height="520" rx="48" fill="url(#glow)"/>
  <g opacity="0.18" stroke="#ffcb08" stroke-width="6" fill="none" stroke-linecap="round" stroke-linejoin="round">
    <path d="M78 110c18-28 48-42 82-42 58 0 102 44 102 102 0 20-6 39-16 55"/>
    <circle cx="248" cy="170" r="34"/>
    <path d="M248 136v68M214 170h68"/>
  </g>
  <g opacity="0.22" transform="translate(250 300)">
    <rect x="0" y="20" width="72" height="48" rx="8" fill="#ffcb08"/>
    <circle cx="18" cy="78" r="14" fill="#ffcb08"/>
    <circle cx="54" cy="78" r="14" fill="#ffcb08"/>
    <path d="M8 20h56l8-16H24z" fill="#ffcb08"/>
  </g>
</svg>
